<svg xmlns="http://www.w3.org/2000/svg" xmlns:xlink="http://www.w3.org/1999/xlink" width="600" zoomAndPan="magnify" viewBox="0 0 450 149.999998" height="200" preserveAspectRatio="xMidYMid meet" version="1.0"><defs><filter x="0%" y="0%" width="100%" height="100%" id="8b6fbd226d"><feColorMatrix values="0 0 0 0 1 0 0 0 0 1 0 0 0 0 1 0 0 0 1 0" color-interpolation-filters="sRGB"/></filter><g/><mask id="29d62180b0"><g filter="url(#8b6fbd226d)"><rect x="-45" width="540" fill="#000000" y="-15" height="179.999997" fill-opacity="0.72"/></g></mask><clipPath id="a97fd4cb1f"><path d="M 0 0.441406 L 450 0.441406 L 450 111 L 0 111 Z M 0 0.441406 " clip-rule="nonzero"/></clipPath><clipPath id="ef4dff339d"><rect x="0" width="450" y="0" height="112"/></clipPath></defs><g mask="url(#29d62180b0)"><g transform="matrix(1, 0, 0, 1, 0, 25)"><g clip-path="url(#ef4dff339d)"><g clip-path="url(#a97fd4cb1f)"><path fill="#7785cc" d="M 442.796875 86.332031 C 423.777344 86.792969 404.851562 86.976562 385.832031 87.070312 C 368.660156 86.425781 351.488281 85.960938 334.222656 85.5 C 328.683594 85.316406 323.234375 85.222656 317.695312 85.039062 C 330.992188 85.316406 344.285156 85.5 357.582031 85.6875 C 379.277344 85.960938 400.882812 86.054688 422.578125 85.871094 C 424.703125 85.871094 426.734375 85.777344 428.855469 85.777344 C 432.457031 85.6875 435.964844 82.640625 435.78125 78.855469 C 435.597656 75.066406 432.734375 72.019531 428.855469 71.929688 C 414.914062 71.652344 400.972656 71.46875 387.035156 71.375 C 387.035156 71.191406 387.035156 70.914062 387.035156 70.730469 C 386.941406 68.699219 386.203125 67.035156 384.910156 65.835938 C 389.25 65.558594 393.496094 65.28125 397.835938 65.003906 C 399.3125 64.914062 400.789062 64.820312 402.175781 64.726562 C 406.515625 64.726562 410.851562 64.820312 415.191406 64.820312 C 417.410156 64.820312 419.625 64.820312 421.839844 64.820312 C 425.441406 64.820312 428.949219 61.589844 428.765625 57.894531 C 428.582031 54.019531 425.71875 51.15625 421.839844 50.972656 C 421.5625 50.972656 421.285156 50.972656 421.007812 50.972656 C 423.964844 50.324219 426.550781 47.1875 426.363281 44.140625 C 426.179688 40.078125 423.316406 37.582031 419.441406 37.214844 C 416.761719 37.03125 414.085938 36.753906 411.40625 36.566406 C 411.777344 35.828125 411.960938 35 411.960938 34.074219 C 415.839844 34.261719 419.71875 34.351562 423.59375 34.535156 C 425.902344 34.628906 428.210938 34.722656 430.519531 34.90625 C 433.933594 35.089844 436.890625 32.136719 437.351562 28.90625 C 437.8125 25.488281 435.6875 22.257812 432.367188 21.335938 C 429.503906 20.503906 426.734375 19.765625 423.871094 19.117188 C 423.964844 16.164062 422.023438 12.65625 418.886719 12.195312 C 398.757812 9.238281 378.355469 7.484375 358.042969 6.101562 C 332.46875 4.347656 306.894531 3.238281 281.320312 2.40625 C 253.804688 1.578125 226.199219 1.113281 198.6875 0.929688 C 172.652344 0.835938 146.523438 1.023438 120.484375 1.667969 C 99.621094 2.222656 78.753906 2.960938 57.980469 4.621094 C 55.949219 4.808594 53.917969 4.992188 51.886719 5.175781 C 48.75 5.453125 45.609375 7.484375 45.054688 10.714844 C 44.871094 10.714844 44.59375 10.714844 44.410156 10.808594 C 40.808594 11.085938 37.300781 13.761719 37.484375 17.734375 C 37.578125 19.488281 38.222656 21.058594 39.238281 22.257812 C 37.207031 22.351562 35.085938 22.535156 33.054688 22.625 C 29.453125 22.902344 25.945312 25.671875 26.128906 29.550781 C 26.3125 33.335938 29.175781 36.382812 33.054688 36.476562 C 41.917969 36.660156 50.78125 36.9375 59.644531 37.121094 C 53.640625 37.492188 47.640625 37.953125 41.640625 38.414062 C 39.421875 38.597656 37.300781 38.785156 35.085938 38.96875 C 31.484375 39.335938 27.976562 41.921875 28.160156 45.894531 C 28.253906 47.832031 28.992188 49.402344 30.097656 50.601562 C 28.714844 51.894531 27.882812 53.648438 27.976562 55.585938 C 28.160156 59.558594 31.023438 62.234375 34.898438 62.511719 C 37.761719 62.695312 40.625 62.882812 43.578125 63.066406 C 43.578125 63.34375 43.578125 63.527344 43.578125 63.804688 C 43.671875 65.835938 44.410156 67.40625 45.515625 68.511719 C 41.640625 68.789062 37.667969 68.976562 33.792969 69.25 C 31.667969 69.4375 29.636719 69.527344 27.511719 69.714844 C 24.003906 69.992188 21.234375 72.113281 20.679688 75.714844 C 20.3125 78.207031 21.417969 80.792969 23.449219 82.269531 C 23.820312 82.730469 24.28125 83.191406 24.835938 83.5625 C 21.234375 83.46875 17.726562 83.46875 14.125 83.378906 C 11.816406 83.378906 9.507812 83.285156 7.109375 83.285156 C 3.507812 83.191406 0 86.515625 0.183594 90.210938 C 0.371094 94.085938 3.230469 97.042969 7.109375 97.132812 C 28.527344 97.78125 49.949219 98.335938 71.367188 98.886719 C 98.328125 99.628906 125.289062 100.367188 152.339844 101.105469 C 181.328125 101.933594 210.320312 102.859375 239.3125 103.78125 C 266.824219 104.703125 294.335938 105.71875 321.851562 106.921875 C 344.007812 107.9375 366.257812 109.042969 388.417969 110.523438 C 390.632812 110.707031 392.851562 110.796875 395.066406 110.984375 C 398.667969 111.261719 402.175781 107.566406 401.988281 104.058594 C 401.988281 103.136719 401.804688 102.304688 401.4375 101.566406 C 403.28125 101.566406 405.222656 101.660156 407.066406 101.660156 C 408.359375 101.660156 409.5625 101.289062 410.667969 100.644531 C 419.164062 100.550781 427.65625 100.457031 436.242188 100.273438 C 438.460938 100.179688 440.675781 100.179688 442.890625 100.089844 C 446.492188 99.996094 450 96.949219 449.816406 93.164062 C 449.539062 89.5625 446.675781 86.148438 442.796875 86.332031 Z M 357.949219 48.941406 C 331.082031 48.386719 304.214844 48.015625 277.347656 47.738281 C 260.175781 47.554688 242.910156 47.460938 225.738281 47.371094 C 224.628906 47.371094 223.429688 47.277344 222.324219 47.277344 C 233.492188 46.910156 244.574219 46.539062 255.746094 46.261719 C 258.976562 46.261719 262.300781 46.261719 265.53125 46.261719 C 292.769531 46.355469 320.003906 46.722656 347.148438 47.460938 C 369.121094 48.109375 391.1875 48.847656 413.160156 50.417969 C 413.625 50.417969 414.085938 50.507812 414.546875 50.507812 C 395.621094 49.863281 376.785156 49.402344 357.949219 48.941406 Z M 357.949219 48.941406 " fill-opacity="1" fill-rule="nonzero"/></g></g></g></g><g fill="#001432" fill-opacity="1"><g transform="translate(133.747466, 67.819059)"><g><path d="M 22.40625 0 L 21.21875 -14.765625 L 21.078125 -14.765625 L 15.96875 -0.15625 L 12.59375 -0.15625 L 7.484375 -14.765625 L 7.328125 -14.765625 L 6.15625 0 L 0.484375 0 L 2.71875 -24.90625 L 8.75 -24.90625 L 14.28125 -10.53125 L 19.796875 -24.90625 L 25.84375 -24.90625 L 28.078125 0 Z M 22.40625 0 "/></g></g></g><g fill="#001432" fill-opacity="1"><g transform="translate(173.476558, 67.819059)"><g><path d="M 2.859375 -1.90625 C 1.410156 -3.488281 0.6875 -5.425781 0.6875 -7.71875 C 0.6875 -10.019531 1.410156 -11.960938 2.859375 -13.546875 C 4.316406 -15.140625 6.160156 -15.9375 8.390625 -15.9375 C 10.441406 -15.9375 12.132812 -15.289062 13.46875 -14 L 13.46875 -15.484375 L 18.8125 -15.484375 L 18.8125 0 L 13.53125 0 L 13.53125 -1.75 L 13.46875 -1.75 C 12.132812 -0.28125 10.441406 0.453125 8.390625 0.453125 C 6.160156 0.453125 4.316406 -0.332031 2.859375 -1.90625 Z M 7.40625 -10.34375 C 6.71875 -9.664062 6.375 -8.789062 6.375 -7.71875 C 6.375 -6.65625 6.703125 -5.785156 7.359375 -5.109375 C 8.023438 -4.441406 8.898438 -4.109375 9.984375 -4.109375 C 11.035156 -4.109375 11.894531 -4.445312 12.5625 -5.125 C 13.238281 -5.8125 13.578125 -6.679688 13.578125 -7.734375 C 13.578125 -8.796875 13.226562 -9.664062 12.53125 -10.34375 C 11.84375 -11.03125 10.992188 -11.375 9.984375 -11.375 C 8.960938 -11.375 8.101562 -11.03125 7.40625 -10.34375 Z M 7.40625 -10.34375 "/></g></g></g><g fill="#001432" fill-opacity="1"><g transform="translate(205.266335, 67.819059)"><g><path d="M 1.8125 0 L 1.8125 -15.484375 L 7.15625 -15.484375 L 7.15625 -13.859375 L 7.21875 -13.859375 C 8.601562 -15.242188 10.082031 -15.9375 11.65625 -15.9375 C 12.414062 -15.9375 13.171875 -15.832031 13.921875 -15.625 C 14.679688 -15.425781 15.40625 -15.113281 16.09375 -14.6875 C 16.789062 -14.269531 17.351562 -13.675781 17.78125 -12.90625 C 18.21875 -12.132812 18.4375 -11.234375 18.4375 -10.203125 L 18.4375 0 L 13.09375 0 L 13.09375 -8.75 C 13.09375 -9.5625 12.835938 -10.265625 12.328125 -10.859375 C 11.816406 -11.460938 11.148438 -11.765625 10.328125 -11.765625 C 9.515625 -11.765625 8.78125 -11.453125 8.125 -10.828125 C 7.476562 -10.210938 7.15625 -9.519531 7.15625 -8.75 L 7.15625 0 Z M 1.8125 0 "/></g></g></g><g fill="#001432" fill-opacity="1"><g transform="translate(236.39198, 67.819059)"><g><path d="M 2.328125 -24.125 C 2.953125 -24.75 3.695312 -25.0625 4.5625 -25.0625 C 5.425781 -25.0625 6.171875 -24.75 6.796875 -24.125 C 7.421875 -23.5 7.734375 -22.753906 7.734375 -21.890625 C 7.734375 -21.023438 7.421875 -20.28125 6.796875 -19.65625 C 6.171875 -19.03125 5.425781 -18.71875 4.5625 -18.71875 C 3.695312 -18.71875 2.953125 -19.03125 2.328125 -19.65625 C 1.703125 -20.28125 1.390625 -21.023438 1.390625 -21.890625 C 1.390625 -22.753906 1.703125 -23.5 2.328125 -24.125 Z M 1.8125 -15.484375 L 1.8125 1.359375 C 1.8125 2.765625 1.316406 3.46875 0.328125 3.46875 C 0.128906 3.46875 -0.078125 3.429688 -0.296875 3.359375 C -0.523438 3.296875 -0.707031 3.222656 -0.84375 3.140625 L -1.03125 3.015625 L -2.6875 7.328125 C -2.644531 7.347656 -2.515625 7.410156 -2.296875 7.515625 C -2.078125 7.617188 -1.910156 7.691406 -1.796875 7.734375 C -1.679688 7.785156 -1.492188 7.851562 -1.234375 7.9375 C -0.972656 8.019531 -0.722656 8.082031 -0.484375 8.125 C -0.242188 8.164062 0.0546875 8.203125 0.421875 8.234375 C 0.785156 8.273438 1.164062 8.296875 1.5625 8.296875 C 2.570312 8.296875 3.457031 8.117188 4.21875 7.765625 C 4.988281 7.421875 5.570312 6.953125 5.96875 6.359375 C 6.375 5.765625 6.671875 5.140625 6.859375 4.484375 C 7.054688 3.828125 7.15625 3.128906 7.15625 2.390625 L 7.15625 -15.484375 Z M 1.8125 -15.484375 "/></g></g></g><g fill="#001432" fill-opacity="1"><g transform="translate(256.529357, 67.819059)"><g><path d="M 6.859375 -15.484375 L 6.859375 -8.125 C 6.859375 -6.59375 7.085938 -5.503906 7.546875 -4.859375 C 8.003906 -4.210938 8.785156 -3.890625 9.890625 -3.890625 C 11.003906 -3.890625 11.789062 -4.210938 12.25 -4.859375 C 12.71875 -5.503906 12.953125 -6.59375 12.953125 -8.125 L 12.953125 -15.484375 L 18.296875 -15.484375 L 18.296875 -6.828125 C 18.296875 -4.242188 17.625 -2.382812 16.28125 -1.25 C 14.945312 -0.113281 12.820312 0.453125 9.90625 0.453125 C 6.988281 0.453125 4.859375 -0.113281 3.515625 -1.25 C 2.179688 -2.382812 1.515625 -4.242188 1.515625 -6.828125 L 1.515625 -15.484375 Z M 6.859375 -15.484375 "/></g></g></g><g fill="#001432" fill-opacity="1"><g transform="translate(287.50406, 67.819059)"><g><path d="M 2.71875 -24.4375 C 3.320312 -25.050781 4.054688 -25.359375 4.921875 -25.359375 C 5.785156 -25.359375 6.53125 -25.046875 7.15625 -24.421875 C 7.78125 -23.796875 8.09375 -23.050781 8.09375 -22.1875 C 8.09375 -19.53125 6.5625 -16.925781 3.5 -14.375 L 2.078125 -15.484375 C 2.203125 -15.609375 2.359375 -15.773438 2.546875 -15.984375 C 2.742188 -16.191406 3.03125 -16.632812 3.40625 -17.3125 C 3.789062 -17.988281 4.046875 -18.664062 4.171875 -19.34375 C 3.484375 -19.507812 2.914062 -19.851562 2.46875 -20.375 C 2.03125 -20.894531 1.8125 -21.5 1.8125 -22.1875 C 1.8125 -23.070312 2.113281 -23.820312 2.71875 -24.4375 Z M 2.71875 -24.4375 "/></g></g></g><g fill="#001432" fill-opacity="1"><g transform="translate(307.460311, 67.819059)"><g><path d="M 8.546875 -15.9375 C 9.429688 -15.9375 10.304688 -15.832031 11.171875 -15.625 C 12.035156 -15.425781 12.675781 -15.226562 13.09375 -15.03125 L 13.734375 -14.734375 L 11.984375 -11.234375 C 10.773438 -11.878906 9.628906 -12.203125 8.546875 -12.203125 C 7.941406 -12.203125 7.507812 -12.132812 7.25 -12 C 7 -11.863281 6.875 -11.617188 6.875 -11.265625 C 6.875 -11.179688 6.882812 -11.097656 6.90625 -11.015625 C 6.925781 -10.929688 6.96875 -10.851562 7.03125 -10.78125 C 7.09375 -10.71875 7.148438 -10.660156 7.203125 -10.609375 C 7.253906 -10.554688 7.335938 -10.5 7.453125 -10.4375 C 7.578125 -10.382812 7.671875 -10.34375 7.734375 -10.3125 C 7.804688 -10.28125 7.921875 -10.234375 8.078125 -10.171875 C 8.242188 -10.109375 8.367188 -10.0625 8.453125 -10.03125 C 8.535156 -10 8.671875 -9.953125 8.859375 -9.890625 C 9.046875 -9.835938 9.191406 -9.800781 9.296875 -9.78125 C 9.921875 -9.601562 10.460938 -9.398438 10.921875 -9.171875 C 11.390625 -8.953125 11.878906 -8.648438 12.390625 -8.265625 C 12.898438 -7.890625 13.296875 -7.410156 13.578125 -6.828125 C 13.859375 -6.242188 14 -5.578125 14 -4.828125 C 14 -1.304688 11.554688 0.453125 6.671875 0.453125 C 5.566406 0.453125 4.515625 0.28125 3.515625 -0.0625 C 2.515625 -0.40625 1.796875 -0.75 1.359375 -1.09375 L 0.6875 -1.625 L 2.875 -5.28125 C 3.03125 -5.144531 3.238281 -4.976562 3.5 -4.78125 C 3.757812 -4.59375 4.234375 -4.332031 4.921875 -4 C 5.609375 -3.664062 6.203125 -3.5 6.703125 -3.5 C 7.804688 -3.5 8.359375 -3.875 8.359375 -4.625 C 8.359375 -4.957031 8.21875 -5.21875 7.9375 -5.40625 C 7.65625 -5.601562 7.175781 -5.820312 6.5 -6.0625 C 5.832031 -6.3125 5.304688 -6.535156 4.921875 -6.734375 C 3.953125 -7.234375 3.1875 -7.800781 2.625 -8.4375 C 2.0625 -9.070312 1.78125 -9.910156 1.78125 -10.953125 C 1.78125 -12.523438 2.390625 -13.75 3.609375 -14.625 C 4.828125 -15.5 6.472656 -15.9375 8.546875 -15.9375 Z M 8.546875 -15.9375 "/></g></g></g><g fill="#001432" fill-opacity="1"><g transform="translate(20.585748, 108.650475)"><g><path d="M 0.96875 -13.359375 L 4.84375 -13.359375 C 6.695312 -13.359375 8.28125 -12.722656 9.59375 -11.453125 C 10.914062 -10.179688 11.578125 -8.59375 11.578125 -6.6875 C 11.578125 -4.757812 10.921875 -3.160156 9.609375 -1.890625 C 8.296875 -0.628906 6.707031 0 4.84375 0 L 0.96875 0 Z M 4.015625 -2.71875 L 4.484375 -2.71875 C 5.597656 -2.71875 6.503906 -3.09375 7.203125 -3.84375 C 7.910156 -4.59375 8.269531 -5.535156 8.28125 -6.671875 C 8.28125 -7.804688 7.925781 -8.75 7.21875 -9.5 C 6.519531 -10.257812 5.609375 -10.640625 4.484375 -10.640625 L 4.015625 -10.640625 Z M 4.015625 -2.71875 "/></g></g></g><g fill="#001432" fill-opacity="1"><g transform="translate(38.521021, 108.650475)"><g><path d="M 1.53125 -1.015625 C 0.757812 -1.867188 0.375 -2.910156 0.375 -4.140625 C 0.375 -5.367188 0.757812 -6.410156 1.53125 -7.265625 C 2.3125 -8.117188 3.300781 -8.546875 4.5 -8.546875 C 5.601562 -8.546875 6.507812 -8.203125 7.21875 -7.515625 L 7.21875 -8.296875 L 10.078125 -8.296875 L 10.078125 0 L 7.25 0 L 7.25 -0.9375 L 7.21875 -0.9375 C 6.507812 -0.144531 5.601562 0.25 4.5 0.25 C 3.300781 0.25 2.3125 -0.171875 1.53125 -1.015625 Z M 3.96875 -5.546875 C 3.601562 -5.179688 3.421875 -4.710938 3.421875 -4.140625 C 3.421875 -3.566406 3.597656 -3.097656 3.953125 -2.734375 C 4.304688 -2.378906 4.773438 -2.203125 5.359375 -2.203125 C 5.921875 -2.203125 6.378906 -2.382812 6.734375 -2.75 C 7.097656 -3.113281 7.28125 -3.578125 7.28125 -4.140625 C 7.28125 -4.710938 7.09375 -5.179688 6.71875 -5.546875 C 6.351562 -5.921875 5.898438 -6.109375 5.359375 -6.109375 C 4.804688 -6.109375 4.34375 -5.921875 3.96875 -5.546875 Z M 3.96875 -5.546875 "/></g></g></g><g fill="#001432" fill-opacity="1"><g transform="translate(55.566195, 108.650475)"><g><path d="M 1.453125 -8.296875 L 1.453125 -11.390625 L 4.328125 -11.390625 L 4.328125 -8.296875 L 6.0625 -8.296875 L 6.0625 -6.125 L 4.328125 -6.125 L 4.328125 -3.484375 C 4.328125 -2.710938 4.539062 -2.328125 4.96875 -2.328125 C 5.070312 -2.328125 5.179688 -2.347656 5.296875 -2.390625 C 5.421875 -2.429688 5.515625 -2.476562 5.578125 -2.53125 L 5.6875 -2.59375 L 6.390625 -0.28125 C 5.773438 0.0703125 5.078125 0.25 4.296875 0.25 C 3.753906 0.25 3.285156 0.15625 2.890625 -0.03125 C 2.503906 -0.226562 2.210938 -0.484375 2.015625 -0.796875 C 1.816406 -1.117188 1.671875 -1.453125 1.578125 -1.796875 C 1.492188 -2.148438 1.453125 -2.53125 1.453125 -2.9375 L 1.453125 -6.125 L 0.265625 -6.125 L 0.265625 -8.296875 Z M 1.453125 -8.296875 "/></g></g></g><g fill="#001432" fill-opacity="1"><g transform="translate(67.950512, 108.650475)"><g><path d="M 1.53125 -1.015625 C 0.757812 -1.867188 0.375 -2.910156 0.375 -4.140625 C 0.375 -5.367188 0.757812 -6.410156 1.53125 -7.265625 C 2.3125 -8.117188 3.300781 -8.546875 4.5 -8.546875 C 5.601562 -8.546875 6.507812 -8.203125 7.21875 -7.515625 L 7.21875 -8.296875 L 10.078125 -8.296875 L 10.078125 0 L 7.25 0 L 7.25 -0.9375 L 7.21875 -0.9375 C 6.507812 -0.144531 5.601562 0.25 4.5 0.25 C 3.300781 0.25 2.3125 -0.171875 1.53125 -1.015625 Z M 3.96875 -5.546875 C 3.601562 -5.179688 3.421875 -4.710938 3.421875 -4.140625 C 3.421875 -3.566406 3.597656 -3.097656 3.953125 -2.734375 C 4.304688 -2.378906 4.773438 -2.203125 5.359375 -2.203125 C 5.921875 -2.203125 6.378906 -2.382812 6.734375 -2.75 C 7.097656 -3.113281 7.28125 -3.578125 7.28125 -4.140625 C 7.28125 -4.710938 7.09375 -5.179688 6.71875 -5.546875 C 6.351562 -5.921875 5.898438 -6.109375 5.359375 -6.109375 C 4.804688 -6.109375 4.34375 -5.921875 3.96875 -5.546875 Z M 3.96875 -5.546875 "/></g></g></g><g fill="#001432" fill-opacity="1"><g transform="translate(84.995685, 108.650475)"><g/></g></g><g fill="#001432" fill-opacity="1"><g transform="translate(95.405596, 108.650475)"><g><path d="M 5.890625 -13.59375 C 6.617188 -13.59375 7.328125 -13.488281 8.015625 -13.28125 C 8.703125 -13.070312 9.210938 -12.863281 9.546875 -12.65625 L 10.03125 -12.328125 L 8.8125 -9.90625 C 8.707031 -9.96875 8.566406 -10.050781 8.390625 -10.15625 C 8.222656 -10.257812 7.898438 -10.394531 7.421875 -10.5625 C 6.953125 -10.738281 6.515625 -10.828125 6.109375 -10.828125 C 5.597656 -10.828125 5.203125 -10.71875 4.921875 -10.5 C 4.648438 -10.289062 4.515625 -10 4.515625 -9.625 C 4.515625 -9.445312 4.578125 -9.28125 4.703125 -9.125 C 4.835938 -8.96875 5.0625 -8.800781 5.375 -8.625 C 5.6875 -8.445312 5.960938 -8.300781 6.203125 -8.1875 C 6.441406 -8.082031 6.804688 -7.921875 7.296875 -7.703125 C 8.160156 -7.335938 8.894531 -6.835938 9.5 -6.203125 C 10.113281 -5.578125 10.421875 -4.863281 10.421875 -4.0625 C 10.421875 -3.289062 10.28125 -2.617188 10 -2.046875 C 9.726562 -1.484375 9.351562 -1.039062 8.875 -0.71875 C 8.394531 -0.394531 7.863281 -0.15625 7.28125 0 C 6.695312 0.164062 6.066406 0.25 5.390625 0.25 C 4.804688 0.25 4.234375 0.1875 3.671875 0.0625 C 3.109375 -0.0507812 2.640625 -0.195312 2.265625 -0.375 C 1.890625 -0.550781 1.550781 -0.726562 1.25 -0.90625 C 0.945312 -1.082031 0.722656 -1.226562 0.578125 -1.34375 L 0.375 -1.515625 L 1.890625 -4.078125 C 2.023438 -3.972656 2.203125 -3.835938 2.421875 -3.671875 C 2.648438 -3.503906 3.050781 -3.28125 3.625 -3 C 4.207031 -2.71875 4.71875 -2.578125 5.15625 -2.578125 C 6.445312 -2.578125 7.09375 -3.015625 7.09375 -3.890625 C 7.09375 -4.066406 7.046875 -4.234375 6.953125 -4.390625 C 6.859375 -4.546875 6.695312 -4.703125 6.46875 -4.859375 C 6.238281 -5.015625 6.03125 -5.140625 5.84375 -5.234375 C 5.664062 -5.328125 5.375 -5.46875 4.96875 -5.65625 C 4.570312 -5.84375 4.273438 -5.988281 4.078125 -6.09375 C 3.265625 -6.488281 2.632812 -6.984375 2.1875 -7.578125 C 1.75 -8.179688 1.53125 -8.828125 1.53125 -9.515625 C 1.53125 -10.710938 1.972656 -11.691406 2.859375 -12.453125 C 3.742188 -13.210938 4.753906 -13.59375 5.890625 -13.59375 Z M 5.890625 -13.59375 "/></g></g></g><g fill="#001432" fill-opacity="1"><g transform="translate(112.272756, 108.650475)"><g><path d="M 1.453125 -8.296875 L 1.453125 -11.390625 L 4.328125 -11.390625 L 4.328125 -8.296875 L 6.0625 -8.296875 L 6.0625 -6.125 L 4.328125 -6.125 L 4.328125 -3.484375 C 4.328125 -2.710938 4.539062 -2.328125 4.96875 -2.328125 C 5.070312 -2.328125 5.179688 -2.347656 5.296875 -2.390625 C 5.421875 -2.429688 5.515625 -2.476562 5.578125 -2.53125 L 5.6875 -2.59375 L 6.390625 -0.28125 C 5.773438 0.0703125 5.078125 0.25 4.296875 0.25 C 3.753906 0.25 3.285156 0.15625 2.890625 -0.03125 C 2.503906 -0.226562 2.210938 -0.484375 2.015625 -0.796875 C 1.816406 -1.117188 1.671875 -1.453125 1.578125 -1.796875 C 1.492188 -2.148438 1.453125 -2.53125 1.453125 -2.9375 L 1.453125 -6.125 L 0.265625 -6.125 L 0.265625 -8.296875 Z M 1.453125 -8.296875 "/></g></g></g><g fill="#001432" fill-opacity="1"><g transform="translate(124.657077, 108.650475)"><g><path d="M 0.96875 0 L 0.96875 -8.296875 L 3.84375 -8.296875 L 3.84375 -7.109375 L 3.875 -7.109375 C 3.894531 -7.148438 3.925781 -7.203125 3.96875 -7.265625 C 4.019531 -7.328125 4.125 -7.4375 4.28125 -7.59375 C 4.445312 -7.757812 4.617188 -7.90625 4.796875 -8.03125 C 4.984375 -8.164062 5.222656 -8.285156 5.515625 -8.390625 C 5.804688 -8.492188 6.101562 -8.546875 6.40625 -8.546875 C 6.71875 -8.546875 7.023438 -8.5 7.328125 -8.40625 C 7.628906 -8.320312 7.851562 -8.238281 8 -8.15625 L 8.21875 -8.03125 L 7.03125 -5.59375 C 6.664062 -5.894531 6.164062 -6.046875 5.53125 -6.046875 C 5.1875 -6.046875 4.890625 -5.96875 4.640625 -5.8125 C 4.398438 -5.664062 4.226562 -5.484375 4.125 -5.265625 C 4.019531 -5.054688 3.945312 -4.875 3.90625 -4.71875 C 3.863281 -4.570312 3.84375 -4.457031 3.84375 -4.375 L 3.84375 0 Z M 0.96875 0 "/></g></g></g><g fill="#001432" fill-opacity="1"><g transform="translate(138.708292, 108.650475)"><g><path d="M 3.671875 -8.296875 L 3.671875 -4.359375 C 3.671875 -3.535156 3.796875 -2.953125 4.046875 -2.609375 C 4.296875 -2.265625 4.71875 -2.09375 5.3125 -2.09375 C 5.90625 -2.09375 6.320312 -2.265625 6.5625 -2.609375 C 6.8125 -2.953125 6.9375 -3.535156 6.9375 -4.359375 L 6.9375 -8.296875 L 9.8125 -8.296875 L 9.8125 -3.65625 C 9.8125 -2.28125 9.453125 -1.285156 8.734375 -0.671875 C 8.015625 -0.0546875 6.875 0.25 5.3125 0.25 C 3.75 0.25 2.609375 -0.0546875 1.890625 -0.671875 C 1.171875 -1.285156 0.8125 -2.28125 0.8125 -3.65625 L 0.8125 -8.296875 Z M 3.671875 -8.296875 "/></g></g></g><g fill="#001432" fill-opacity="1"><g transform="translate(155.316507, 108.650475)"><g><path d="M 5.390625 -6.203125 C 4.847656 -6.203125 4.382812 -6 4 -5.59375 C 3.613281 -5.195312 3.421875 -4.71875 3.421875 -4.15625 C 3.421875 -3.582031 3.613281 -3.097656 4 -2.703125 C 4.382812 -2.304688 4.847656 -2.109375 5.390625 -2.109375 C 5.648438 -2.109375 5.894531 -2.140625 6.125 -2.203125 C 6.351562 -2.265625 6.523438 -2.328125 6.640625 -2.390625 L 6.78125 -2.5 L 7.75 -0.5 C 7.675781 -0.445312 7.570312 -0.378906 7.4375 -0.296875 C 7.300781 -0.210938 6.992188 -0.101562 6.515625 0.03125 C 6.035156 0.175781 5.519531 0.25 4.96875 0.25 C 3.75 0.25 2.675781 -0.175781 1.75 -1.03125 C 0.832031 -1.894531 0.375 -2.925781 0.375 -4.125 C 0.375 -5.332031 0.832031 -6.367188 1.75 -7.234375 C 2.675781 -8.109375 3.75 -8.546875 4.96875 -8.546875 C 5.519531 -8.546875 6.023438 -8.476562 6.484375 -8.34375 C 6.953125 -8.21875 7.285156 -8.09375 7.484375 -7.96875 L 7.75 -7.765625 L 6.78125 -5.8125 C 6.425781 -6.070312 5.960938 -6.203125 5.390625 -6.203125 Z M 5.390625 -6.203125 "/></g></g></g><g fill="#001432" fill-opacity="1"><g transform="translate(169.254437, 108.650475)"><g><path d="M 1.453125 -8.296875 L 1.453125 -11.390625 L 4.328125 -11.390625 L 4.328125 -8.296875 L 6.0625 -8.296875 L 6.0625 -6.125 L 4.328125 -6.125 L 4.328125 -3.484375 C 4.328125 -2.710938 4.539062 -2.328125 4.96875 -2.328125 C 5.070312 -2.328125 5.179688 -2.347656 5.296875 -2.390625 C 5.421875 -2.429688 5.515625 -2.476562 5.578125 -2.53125 L 5.6875 -2.59375 L 6.390625 -0.28125 C 5.773438 0.0703125 5.078125 0.25 4.296875 0.25 C 3.753906 0.25 3.285156 0.15625 2.890625 -0.03125 C 2.503906 -0.226562 2.210938 -0.484375 2.015625 -0.796875 C 1.816406 -1.117188 1.671875 -1.453125 1.578125 -1.796875 C 1.492188 -2.148438 1.453125 -2.53125 1.453125 -2.9375 L 1.453125 -6.125 L 0.265625 -6.125 L 0.265625 -8.296875 Z M 1.453125 -8.296875 "/></g></g></g><g fill="#001432" fill-opacity="1"><g transform="translate(181.638752, 108.650475)"><g><path d="M 3.671875 -8.296875 L 3.671875 -4.359375 C 3.671875 -3.535156 3.796875 -2.953125 4.046875 -2.609375 C 4.296875 -2.265625 4.71875 -2.09375 5.3125 -2.09375 C 5.90625 -2.09375 6.320312 -2.265625 6.5625 -2.609375 C 6.8125 -2.953125 6.9375 -3.535156 6.9375 -4.359375 L 6.9375 -8.296875 L 9.8125 -8.296875 L 9.8125 -3.65625 C 9.8125 -2.28125 9.453125 -1.285156 8.734375 -0.671875 C 8.015625 -0.0546875 6.875 0.25 5.3125 0.25 C 3.75 0.25 2.609375 -0.0546875 1.890625 -0.671875 C 1.171875 -1.285156 0.8125 -2.28125 0.8125 -3.65625 L 0.8125 -8.296875 Z M 3.671875 -8.296875 "/></g></g></g><g fill="#001432" fill-opacity="1"><g transform="translate(198.246966, 108.650475)"><g><path d="M 0.96875 0 L 0.96875 -8.296875 L 3.84375 -8.296875 L 3.84375 -7.109375 L 3.875 -7.109375 C 3.894531 -7.148438 3.925781 -7.203125 3.96875 -7.265625 C 4.019531 -7.328125 4.125 -7.4375 4.28125 -7.59375 C 4.445312 -7.757812 4.617188 -7.90625 4.796875 -8.03125 C 4.984375 -8.164062 5.222656 -8.285156 5.515625 -8.390625 C 5.804688 -8.492188 6.101562 -8.546875 6.40625 -8.546875 C 6.71875 -8.546875 7.023438 -8.5 7.328125 -8.40625 C 7.628906 -8.320312 7.851562 -8.238281 8 -8.15625 L 8.21875 -8.03125 L 7.03125 -5.59375 C 6.664062 -5.894531 6.164062 -6.046875 5.53125 -6.046875 C 5.1875 -6.046875 4.890625 -5.96875 4.640625 -5.8125 C 4.398438 -5.664062 4.226562 -5.484375 4.125 -5.265625 C 4.019531 -5.054688 3.945312 -4.875 3.90625 -4.71875 C 3.863281 -4.570312 3.84375 -4.457031 3.84375 -4.375 L 3.84375 0 Z M 0.96875 0 "/></g></g></g><g fill="#001432" fill-opacity="1"><g transform="translate(212.298181, 108.650475)"><g><path d="M 9.375 -3.75 L 3.34375 -3.75 C 3.34375 -3.164062 3.53125 -2.734375 3.90625 -2.453125 C 4.289062 -2.179688 4.703125 -2.046875 5.140625 -2.046875 C 5.609375 -2.046875 5.976562 -2.101562 6.25 -2.21875 C 6.519531 -2.34375 6.828125 -2.59375 7.171875 -2.96875 L 9.25 -1.921875 C 8.382812 -0.472656 6.945312 0.25 4.9375 0.25 C 3.6875 0.25 2.613281 -0.175781 1.71875 -1.03125 C 0.820312 -1.894531 0.375 -2.929688 0.375 -4.140625 C 0.375 -5.347656 0.820312 -6.382812 1.71875 -7.25 C 2.613281 -8.113281 3.6875 -8.546875 4.9375 -8.546875 C 6.25 -8.546875 7.316406 -8.164062 8.140625 -7.40625 C 8.972656 -6.644531 9.390625 -5.554688 9.390625 -4.140625 C 9.390625 -3.953125 9.382812 -3.820312 9.375 -3.75 Z M 3.4375 -5.34375 L 6.59375 -5.34375 C 6.519531 -5.769531 6.347656 -6.097656 6.078125 -6.328125 C 5.804688 -6.566406 5.453125 -6.6875 5.015625 -6.6875 C 4.546875 -6.6875 4.171875 -6.5625 3.890625 -6.3125 C 3.609375 -6.0625 3.457031 -5.738281 3.4375 -5.34375 Z M 3.4375 -5.34375 "/></g></g></g><g fill="#001432" fill-opacity="1"><g transform="translate(228.048672, 108.650475)"><g><path d="M 4.578125 -8.546875 C 5.054688 -8.546875 5.523438 -8.488281 5.984375 -8.375 C 6.453125 -8.269531 6.800781 -8.164062 7.03125 -8.0625 L 7.359375 -7.90625 L 6.421875 -6.015625 C 5.773438 -6.367188 5.160156 -6.546875 4.578125 -6.546875 C 4.253906 -6.546875 4.023438 -6.507812 3.890625 -6.4375 C 3.753906 -6.363281 3.6875 -6.226562 3.6875 -6.03125 C 3.6875 -5.988281 3.691406 -5.945312 3.703125 -5.90625 C 3.710938 -5.863281 3.734375 -5.820312 3.765625 -5.78125 C 3.796875 -5.75 3.828125 -5.71875 3.859375 -5.6875 C 3.890625 -5.664062 3.9375 -5.632812 4 -5.59375 C 4.0625 -5.5625 4.109375 -5.535156 4.140625 -5.515625 C 4.179688 -5.503906 4.242188 -5.484375 4.328125 -5.453125 C 4.421875 -5.421875 4.488281 -5.394531 4.53125 -5.375 C 4.570312 -5.363281 4.644531 -5.34375 4.75 -5.3125 C 4.851562 -5.28125 4.929688 -5.257812 4.984375 -5.25 C 5.316406 -5.144531 5.609375 -5.035156 5.859375 -4.921875 C 6.109375 -4.804688 6.367188 -4.644531 6.640625 -4.4375 C 6.921875 -4.226562 7.132812 -3.96875 7.28125 -3.65625 C 7.4375 -3.34375 7.515625 -2.988281 7.515625 -2.59375 C 7.515625 -0.695312 6.203125 0.25 3.578125 0.25 C 2.984375 0.25 2.414062 0.15625 1.875 -0.03125 C 1.34375 -0.21875 0.960938 -0.398438 0.734375 -0.578125 L 0.375 -0.875 L 1.53125 -2.828125 C 1.625 -2.753906 1.738281 -2.664062 1.875 -2.5625 C 2.019531 -2.457031 2.273438 -2.316406 2.640625 -2.140625 C 3.003906 -1.960938 3.320312 -1.875 3.59375 -1.875 C 4.1875 -1.875 4.484375 -2.078125 4.484375 -2.484375 C 4.484375 -2.660156 4.40625 -2.800781 4.25 -2.90625 C 4.101562 -3.007812 3.847656 -3.125 3.484375 -3.25 C 3.128906 -3.382812 2.847656 -3.503906 2.640625 -3.609375 C 2.117188 -3.878906 1.707031 -4.179688 1.40625 -4.515625 C 1.101562 -4.859375 0.953125 -5.3125 0.953125 -5.875 C 0.953125 -6.71875 1.273438 -7.375 1.921875 -7.84375 C 2.578125 -8.3125 3.460938 -8.546875 4.578125 -8.546875 Z M 4.578125 -8.546875 "/></g></g></g><g fill="#001432" fill-opacity="1"><g transform="translate(242.002796, 108.650475)"><g/></g></g><g fill="#001432" fill-opacity="1"><g transform="translate(252.412707, 108.650475)"><g><path d="M 0.46875 -3.515625 C 0.46875 -3.910156 0.554688 -4.289062 0.734375 -4.65625 C 0.921875 -5.03125 1.179688 -5.367188 1.515625 -5.671875 C 1.847656 -5.972656 2.1875 -6.234375 2.53125 -6.453125 C 2.882812 -6.679688 3.28125 -6.914062 3.71875 -7.15625 C 2.820312 -8.28125 2.375 -9.265625 2.375 -10.109375 C 2.375 -11.171875 2.742188 -12.015625 3.484375 -12.640625 C 4.222656 -13.273438 5.273438 -13.59375 6.640625 -13.59375 C 7.890625 -13.59375 8.863281 -13.242188 9.5625 -12.546875 C 10.257812 -11.847656 10.609375 -11.035156 10.609375 -10.109375 C 10.609375 -9.734375 10.515625 -9.363281 10.328125 -9 C 10.140625 -8.644531 9.921875 -8.335938 9.671875 -8.078125 C 9.421875 -7.828125 9.164062 -7.601562 8.90625 -7.40625 C 8.644531 -7.21875 8.421875 -7.078125 8.234375 -6.984375 L 7.96875 -6.828125 L 9.75 -4.984375 C 10.132812 -5.160156 10.785156 -5.722656 11.703125 -6.671875 L 13.578125 -4.828125 C 12.972656 -4.128906 12.34375 -3.519531 11.6875 -3 L 14.5625 0 L 10.734375 0 L 9.40625 -1.375 C 9 -1.082031 8.695312 -0.875 8.5 -0.75 C 8.300781 -0.625 8.007812 -0.460938 7.625 -0.265625 C 7.25 -0.078125 6.859375 0.0507812 6.453125 0.125 C 6.046875 0.207031 5.597656 0.25 5.109375 0.25 C 4.691406 0.25 4.273438 0.210938 3.859375 0.140625 C 3.453125 0.0664062 3.039062 -0.0546875 2.625 -0.234375 C 2.207031 -0.410156 1.84375 -0.632812 1.53125 -0.90625 C 1.21875 -1.175781 0.960938 -1.535156 0.765625 -1.984375 C 0.566406 -2.429688 0.46875 -2.941406 0.46875 -3.515625 Z M 6.640625 -11.4375 C 6.242188 -11.4375 5.945312 -11.3125 5.75 -11.0625 C 5.5625 -10.820312 5.46875 -10.503906 5.46875 -10.109375 C 5.46875 -9.890625 5.546875 -9.640625 5.703125 -9.359375 C 5.867188 -9.085938 6.035156 -8.867188 6.203125 -8.703125 L 6.4375 -8.484375 C 7.4375 -9.023438 7.9375 -9.566406 7.9375 -10.109375 C 7.9375 -10.992188 7.503906 -11.4375 6.640625 -11.4375 Z M 7.4375 -3.40625 L 5.3125 -5.484375 C 5.28125 -5.472656 5.226562 -5.453125 5.15625 -5.421875 C 5.09375 -5.398438 4.976562 -5.335938 4.8125 -5.234375 C 4.65625 -5.128906 4.515625 -5.015625 4.390625 -4.890625 C 4.273438 -4.765625 4.164062 -4.597656 4.0625 -4.390625 C 3.96875 -4.191406 3.921875 -3.976562 3.921875 -3.75 C 3.921875 -3.394531 4.070312 -3.117188 4.375 -2.921875 C 4.675781 -2.734375 5.023438 -2.640625 5.421875 -2.640625 C 5.742188 -2.640625 6.070312 -2.703125 6.40625 -2.828125 C 6.738281 -2.953125 6.992188 -3.078125 7.171875 -3.203125 Z M 7.4375 -3.40625 "/></g></g></g><g fill="#001432" fill-opacity="1"><g transform="translate(271.885423, 108.650475)"><g/></g></g><g fill="#001432" fill-opacity="1"><g transform="translate(282.295335, 108.650475)"><g><path d="M 7.75 -13.359375 L 13.140625 0 L 9.875 0 L 8.890625 -2.671875 L 3.796875 -2.671875 L 2.8125 0 L -0.453125 0 L 4.9375 -13.359375 Z M 7.84375 -5.34375 L 6.359375 -9.234375 L 6.328125 -9.234375 L 4.84375 -5.34375 Z M 7.84375 -5.34375 "/></g></g></g><g fill="#001432" fill-opacity="1"><g transform="translate(300.975045, 108.650475)"><g><path d="M 0.96875 0 L 0.96875 -13.921875 L 3.84375 -13.921875 L 3.84375 0 Z M 0.96875 0 "/></g></g></g><g fill="#001432" fill-opacity="1"><g transform="translate(311.773369, 108.650475)"><g><path d="M 0.59375 2.046875 L 2.953125 0.890625 C 3.378906 1.597656 4.128906 1.953125 5.203125 1.953125 C 5.691406 1.953125 6.148438 1.789062 6.578125 1.46875 C 7.003906 1.15625 7.21875 0.671875 7.21875 0.015625 L 7.21875 -0.59375 C 6.707031 -0.03125 5.800781 0.25 4.5 0.25 C 3.300781 0.25 2.3125 -0.171875 1.53125 -1.015625 C 0.757812 -1.867188 0.375 -2.910156 0.375 -4.140625 C 0.375 -5.367188 0.757812 -6.410156 1.53125 -7.265625 C 2.3125 -8.117188 3.300781 -8.546875 4.5 -8.546875 C 5.570312 -8.546875 6.460938 -8.21875 7.171875 -7.5625 L 7.21875 -7.5625 L 7.21875 -8.296875 L 10.078125 -8.296875 L 10.078125 0.234375 C 10.078125 1.578125 9.628906 2.613281 8.734375 3.34375 C 7.835938 4.082031 6.660156 4.453125 5.203125 4.453125 C 2.828125 4.453125 1.289062 3.648438 0.59375 2.046875 Z M 3.96875 -5.546875 C 3.601562 -5.179688 3.421875 -4.710938 3.421875 -4.140625 C 3.421875 -3.566406 3.597656 -3.097656 3.953125 -2.734375 C 4.304688 -2.378906 4.773438 -2.203125 5.359375 -2.203125 C 5.921875 -2.203125 6.378906 -2.382812 6.734375 -2.75 C 7.097656 -3.113281 7.28125 -3.578125 7.28125 -4.140625 C 7.28125 -4.710938 7.09375 -5.179688 6.71875 -5.546875 C 6.351562 -5.921875 5.898438 -6.109375 5.359375 -6.109375 C 4.804688 -6.109375 4.34375 -5.921875 3.96875 -5.546875 Z M 3.96875 -5.546875 "/></g></g></g><g fill="#001432" fill-opacity="1"><g transform="translate(328.818541, 108.650475)"><g><path d="M 1.75 -0.984375 C 0.832031 -1.804688 0.375 -2.859375 0.375 -4.140625 C 0.375 -5.421875 0.851562 -6.472656 1.8125 -7.296875 C 2.769531 -8.128906 3.957031 -8.546875 5.375 -8.546875 C 6.769531 -8.546875 7.941406 -8.128906 8.890625 -7.296875 C 9.847656 -6.460938 10.328125 -5.410156 10.328125 -4.140625 C 10.328125 -2.867188 9.859375 -1.816406 8.921875 -0.984375 C 7.992188 -0.160156 6.8125 0.25 5.375 0.25 C 3.882812 0.25 2.675781 -0.160156 1.75 -0.984375 Z M 3.96875 -5.546875 C 3.601562 -5.179688 3.421875 -4.710938 3.421875 -4.140625 C 3.421875 -3.566406 3.597656 -3.097656 3.953125 -2.734375 C 4.304688 -2.378906 4.773438 -2.203125 5.359375 -2.203125 C 5.921875 -2.203125 6.378906 -2.382812 6.734375 -2.75 C 7.097656 -3.113281 7.28125 -3.578125 7.28125 -4.140625 C 7.28125 -4.710938 7.09375 -5.179688 6.71875 -5.546875 C 6.351562 -5.921875 5.898438 -6.109375 5.359375 -6.109375 C 4.804688 -6.109375 4.34375 -5.921875 3.96875 -5.546875 Z M 3.96875 -5.546875 "/></g></g></g><g fill="#001432" fill-opacity="1"><g transform="translate(345.507688, 108.650475)"><g><path d="M 0.96875 0 L 0.96875 -8.296875 L 3.84375 -8.296875 L 3.84375 -7.109375 L 3.875 -7.109375 C 3.894531 -7.148438 3.925781 -7.203125 3.96875 -7.265625 C 4.019531 -7.328125 4.125 -7.4375 4.28125 -7.59375 C 4.445312 -7.757812 4.617188 -7.90625 4.796875 -8.03125 C 4.984375 -8.164062 5.222656 -8.285156 5.515625 -8.390625 C 5.804688 -8.492188 6.101562 -8.546875 6.40625 -8.546875 C 6.71875 -8.546875 7.023438 -8.5 7.328125 -8.40625 C 7.628906 -8.320312 7.851562 -8.238281 8 -8.15625 L 8.21875 -8.03125 L 7.03125 -5.59375 C 6.664062 -5.894531 6.164062 -6.046875 5.53125 -6.046875 C 5.1875 -6.046875 4.890625 -5.96875 4.640625 -5.8125 C 4.398438 -5.664062 4.226562 -5.484375 4.125 -5.265625 C 4.019531 -5.054688 3.945312 -4.875 3.90625 -4.71875 C 3.863281 -4.570312 3.84375 -4.457031 3.84375 -4.375 L 3.84375 0 Z M 0.96875 0 "/></g></g></g><g fill="#001432" fill-opacity="1"><g transform="translate(359.558903, 108.650475)"><g><path d="M 1.25 -12.9375 C 1.582031 -13.269531 1.976562 -13.4375 2.4375 -13.4375 C 2.90625 -13.4375 3.304688 -13.269531 3.640625 -12.9375 C 3.972656 -12.601562 4.140625 -12.203125 4.140625 -11.734375 C 4.140625 -11.273438 3.972656 -10.875 3.640625 -10.53125 C 3.304688 -10.195312 2.90625 -10.03125 2.4375 -10.03125 C 1.976562 -10.03125 1.582031 -10.195312 1.25 -10.53125 C 0.914062 -10.875 0.75 -11.273438 0.75 -11.734375 C 0.75 -12.203125 0.914062 -12.601562 1.25 -12.9375 Z M 0.96875 -8.296875 L 0.96875 0 L 3.84375 0 L 3.84375 -8.296875 Z M 0.96875 -8.296875 "/></g></g></g><g fill="#001432" fill-opacity="1"><g transform="translate(370.438137, 108.650475)"><g><path d="M 1.453125 -8.296875 L 1.453125 -11.390625 L 4.328125 -11.390625 L 4.328125 -8.296875 L 6.0625 -8.296875 L 6.0625 -6.125 L 4.328125 -6.125 L 4.328125 -3.484375 C 4.328125 -2.710938 4.539062 -2.328125 4.96875 -2.328125 C 5.070312 -2.328125 5.179688 -2.347656 5.296875 -2.390625 C 5.421875 -2.429688 5.515625 -2.476562 5.578125 -2.53125 L 5.6875 -2.59375 L 6.390625 -0.28125 C 5.773438 0.0703125 5.078125 0.25 4.296875 0.25 C 3.753906 0.25 3.285156 0.15625 2.890625 -0.03125 C 2.503906 -0.226562 2.210938 -0.484375 2.015625 -0.796875 C 1.816406 -1.117188 1.671875 -1.453125 1.578125 -1.796875 C 1.492188 -2.148438 1.453125 -2.53125 1.453125 -2.9375 L 1.453125 -6.125 L 0.265625 -6.125 L 0.265625 -8.296875 Z M 1.453125 -8.296875 "/></g></g></g><g fill="#001432" fill-opacity="1"><g transform="translate(382.822452, 108.650475)"><g><path d="M 0.96875 0 L 0.96875 -13.921875 L 3.84375 -13.921875 L 3.84375 -7.4375 L 3.875 -7.4375 C 4.613281 -8.175781 5.40625 -8.546875 6.25 -8.546875 C 6.65625 -8.546875 7.0625 -8.488281 7.46875 -8.375 C 7.875 -8.269531 8.257812 -8.101562 8.625 -7.875 C 9 -7.65625 9.300781 -7.335938 9.53125 -6.921875 C 9.769531 -6.503906 9.890625 -6.019531 9.890625 -5.46875 L 9.890625 0 L 7.03125 0 L 7.03125 -4.6875 C 7.03125 -5.125 6.890625 -5.503906 6.609375 -5.828125 C 6.335938 -6.148438 5.976562 -6.3125 5.53125 -6.3125 C 5.101562 -6.3125 4.710938 -6.144531 4.359375 -5.8125 C 4.015625 -5.476562 3.84375 -5.101562 3.84375 -4.6875 L 3.84375 0 Z M 0.96875 0 "/></g></g></g><g fill="#001432" fill-opacity="1"><g transform="translate(399.511599, 108.650475)"><g><path d="M 0.96875 0 L 0.96875 -8.296875 L 3.84375 -8.296875 L 3.84375 -7.4375 L 3.875 -7.4375 C 4.613281 -8.175781 5.40625 -8.546875 6.25 -8.546875 C 6.851562 -8.546875 7.414062 -8.421875 7.9375 -8.171875 C 8.46875 -7.921875 8.867188 -7.539062 9.140625 -7.03125 C 9.984375 -8.039062 10.898438 -8.546875 11.890625 -8.546875 C 12.773438 -8.546875 13.535156 -8.296875 14.171875 -7.796875 C 14.816406 -7.304688 15.140625 -6.53125 15.140625 -5.46875 L 15.140625 0 L 12.265625 0 L 12.265625 -4.6875 C 12.265625 -5.132812 12.144531 -5.503906 11.90625 -5.796875 C 11.664062 -6.097656 11.300781 -6.25 10.8125 -6.25 C 10.394531 -6.25 10.070312 -6.117188 9.84375 -5.859375 C 9.625 -5.609375 9.503906 -5.304688 9.484375 -4.953125 L 9.484375 0 L 6.625 0 L 6.625 -4.6875 C 6.625 -5.132812 6.5 -5.503906 6.25 -5.796875 C 6.007812 -6.097656 5.644531 -6.25 5.15625 -6.25 C 4.71875 -6.25 4.390625 -6.109375 4.171875 -5.828125 C 3.953125 -5.554688 3.84375 -5.234375 3.84375 -4.859375 L 3.84375 0 Z M 0.96875 0 "/></g></g></g><g fill="#001432" fill-opacity="1"><g transform="translate(421.444199, 108.650475)"><g><path d="M 4.578125 -8.546875 C 5.054688 -8.546875 5.523438 -8.488281 5.984375 -8.375 C 6.453125 -8.269531 6.800781 -8.164062 7.03125 -8.0625 L 7.359375 -7.90625 L 6.421875 -6.015625 C 5.773438 -6.367188 5.160156 -6.546875 4.578125 -6.546875 C 4.253906 -6.546875 4.023438 -6.507812 3.890625 -6.4375 C 3.753906 -6.363281 3.6875 -6.226562 3.6875 -6.03125 C 3.6875 -5.988281 3.691406 -5.945312 3.703125 -5.90625 C 3.710938 -5.863281 3.734375 -5.820312 3.765625 -5.78125 C 3.796875 -5.75 3.828125 -5.71875 3.859375 -5.6875 C 3.890625 -5.664062 3.9375 -5.632812 4 -5.59375 C 4.0625 -5.5625 4.109375 -5.535156 4.140625 -5.515625 C 4.179688 -5.503906 4.242188 -5.484375 4.328125 -5.453125 C 4.421875 -5.421875 4.488281 -5.394531 4.53125 -5.375 C 4.570312 -5.363281 4.644531 -5.34375 4.75 -5.3125 C 4.851562 -5.28125 4.929688 -5.257812 4.984375 -5.25 C 5.316406 -5.144531 5.609375 -5.035156 5.859375 -4.921875 C 6.109375 -4.804688 6.367188 -4.644531 6.640625 -4.4375 C 6.921875 -4.226562 7.132812 -3.96875 7.28125 -3.65625 C 7.4375 -3.34375 7.515625 -2.988281 7.515625 -2.59375 C 7.515625 -0.695312 6.203125 0.25 3.578125 0.25 C 2.984375 0.25 2.414062 0.15625 1.875 -0.03125 C 1.34375 -0.21875 0.960938 -0.398438 0.734375 -0.578125 L 0.375 -0.875 L 1.53125 -2.828125 C 1.625 -2.753906 1.738281 -2.664062 1.875 -2.5625 C 2.019531 -2.457031 2.273438 -2.316406 2.640625 -2.140625 C 3.003906 -1.960938 3.320312 -1.875 3.59375 -1.875 C 4.1875 -1.875 4.484375 -2.078125 4.484375 -2.484375 C 4.484375 -2.660156 4.40625 -2.800781 4.25 -2.90625 C 4.101562 -3.007812 3.847656 -3.125 3.484375 -3.25 C 3.128906 -3.382812 2.847656 -3.503906 2.640625 -3.609375 C 2.117188 -3.878906 1.707031 -4.179688 1.40625 -4.515625 C 1.101562 -4.859375 0.953125 -5.3125 0.953125 -5.875 C 0.953125 -6.71875 1.273438 -7.375 1.921875 -7.84375 C 2.578125 -8.3125 3.460938 -8.546875 4.578125 -8.546875 Z M 4.578125 -8.546875 "/></g></g></g></svg>